<svg xmlns="http://www.w3.org/2000/svg" width="21.926" height="20.099" viewBox="0 0 21.926 20.099">
  <path id="envelope_1_" data-name="envelope (1)" d="M17.358,1H4.568A4.573,4.573,0,0,0,0,5.568V16.531A4.573,4.573,0,0,0,4.568,21.1h12.79a4.573,4.573,0,0,0,4.568-4.568V5.568A4.573,4.573,0,0,0,17.358,1ZM4.568,2.827h12.79A2.741,2.741,0,0,1,19.9,4.551l-7,7a2.747,2.747,0,0,1-3.877,0l-7-7a2.741,2.741,0,0,1,2.54-1.724Zm12.79,16.444H4.568a2.741,2.741,0,0,1-2.741-2.741V6.938l5.905,5.9a4.574,4.574,0,0,0,6.461,0l5.905-5.9v9.593A2.741,2.741,0,0,1,17.358,19.271Z" transform="translate(0 -1)" fill="#2b373c"/>
</svg>
