<svg xmlns="http://www.w3.org/2000/svg" width="24.447" height="18.457" viewBox="0 0 24.447 18.457">
  <g id="eye_1_" data-name="eye (1)" transform="translate(0 -2.94)">
    <path id="Path_34609" data-name="Path 34609" d="M24.243,11.637c-.132-.355-3.361-8.7-12.02-8.7S.332,11.281.2,11.637l-.2.532.2.532c.132.355,3.361,8.7,12.02,8.7s11.891-8.341,12.02-8.7l.2-.532Zm-12.02,6.73c-5.519,0-8.191-4.6-8.954-6.2.765-1.6,3.438-6.2,8.954-6.2s8.188,4.593,8.954,6.2C20.411,13.774,17.739,18.367,12.223,18.367Z" transform="translate(0 0)" fill="#babec0"/>
    <circle id="Ellipse_234" data-name="Ellipse 234" cx="4.074" cy="4.074" r="4.074" transform="translate(8.149 8.094)" fill="#babec0"/>
  </g>
</svg>
