<svg xmlns="http://www.w3.org/2000/svg" width="19.977" height="23.932" viewBox="0 0 19.977 23.932">
  <g id="lock" transform="translate(-1.9 0.1)">
    <path id="Path_34607" data-name="Path 34607" d="M18.81,8.33V6.922a6.922,6.922,0,1,0-13.844,0V8.33A4.944,4.944,0,0,0,2,12.855v5.933a4.95,4.95,0,0,0,4.944,4.944h9.888a4.95,4.95,0,0,0,4.944-4.944V12.855A4.944,4.944,0,0,0,18.81,8.33ZM6.944,6.922a4.944,4.944,0,1,1,9.888,0v.989H6.944ZM19.8,18.788a2.966,2.966,0,0,1-2.966,2.966H6.944a2.966,2.966,0,0,1-2.966-2.966V12.855A2.966,2.966,0,0,1,6.944,9.888h9.888A2.966,2.966,0,0,1,19.8,12.855Z" fill="#2b373c" stroke="#2b373c" stroke-width="0.2"/>
    <path id="Path_34608" data-name="Path 34608" d="M11.989,14a.989.989,0,0,0-.989.989v1.978a.989.989,0,0,0,1.978,0V14.989A.989.989,0,0,0,11.989,14Z" transform="translate(-0.101 -0.156)" fill="#2b373c" stroke="#2b373c" stroke-width="0.2"/>
  </g>
</svg>
